<?xml version="1.0" standalone="no"?>
<!DOCTYPE svg PUBLIC "-//W3C//DTD SVG 20010904//EN"
 "http://www.w3.org/TR/2001/REC-SVG-20010904/DTD/svg10.dtd">
<svg version="1.0" xmlns="http://www.w3.org/2000/svg"
 width="145.000000pt" height="145.000000pt" viewBox="0 0 145.000000 145.000000"
 preserveAspectRatio="xMidYMid meet">
<metadata>
Created by potrace 1.14, written by Peter Selinger 2001-2017
</metadata>
<g transform="translate(0.000000,145.000000) scale(0.100000,-0.100000)"
fill="#000000" stroke="none">
<path d="M294 1042 c-117 -41 -181 -137 -189 -283 -4 -71 11 -155 37 -205 24
-44 98 -109 144 -125 22 -8 77 -14 124 -14 70 0 93 5 134 25 49 25 126 102
126 126 0 7 -14 21 -32 30 -29 15 -32 15 -41 -2 -6 -11 -27 -35 -46 -55 -101
-102 -279 -64 -334 71 -36 85 -27 225 18 294 47 72 163 105 250 72 41 -16 87
-58 97 -88 4 -10 13 -10 46 0 23 7 42 15 42 19 0 16 -44 74 -73 96 -72 55
-207 72 -303 39z"/>
<path d="M967 1050 c-85 -22 -146 -74 -185 -159 -36 -76 -37 -217 -4 -302 44
-110 134 -171 261 -175 109 -3 162 15 227 81 30 30 54 61 54 69 0 9 -14 23
-32 32 -28 14 -32 15 -40 1 -74 -134 -247 -156 -345 -44 -43 49 -57 98 -57
192 1 65 6 90 26 130 45 91 144 133 247 105 43 -11 102 -59 113 -90 4 -12 11
-12 46 -2 23 7 42 16 42 21 0 24 -66 94 -111 116 -57 29 -176 41 -242 25z"/>
</g>
</svg>
